<svg xmlns="http://www.w3.org/2000/svg" xmlns:xlink="http://www.w3.org/1999/xlink" width="300" zoomAndPan="magnify" viewBox="0 0 224.87999 225" height="300" preserveAspectRatio="xMidYMid meet" version="1.0"><defs><clipPath id="48c0b5349c"><path d="M 18.695312 43.480469 L 211.15625 43.480469 L 211.15625 185 L 18.695312 185 Z M 18.695312 43.480469 " clip-rule="nonzero"/></clipPath></defs><path fill="#edc2bb" d="M 44.132812 175.738281 L 185.71875 175.738281 C 194.359375 175.738281 201.359375 168.730469 201.359375 160.097656 L 201.359375 58.652344 L 28.496094 58.652344 L 28.496094 160.097656 C 28.496094 168.730469 35.5 175.738281 44.132812 175.738281 Z M 44.132812 175.738281 " fill-opacity="1" fill-rule="nonzero"/><g clip-path="url(#48c0b5349c)"><path fill="#de84a0" d="M 24.484375 73.226562 L 205.367188 73.226562 C 208.5625 73.226562 211.15625 70.632812 211.15625 67.4375 L 211.15625 49.367188 C 211.15625 46.171875 208.5625 43.578125 205.367188 43.578125 L 24.484375 43.578125 C 21.289062 43.578125 18.695312 46.171875 18.695312 49.367188 L 18.695312 67.4375 C 18.695312 70.632812 21.289062 73.226562 24.484375 73.226562 Z M 46.550781 83.277344 L 183.300781 83.277344 C 186.195312 83.277344 188.542969 85.621094 188.542969 88.515625 L 188.542969 158.9375 C 188.542969 161.832031 186.195312 164.179688 183.300781 164.179688 L 80.582031 164.179688 C 79.136719 164.179688 77.734375 164.660156 76.601562 165.550781 L 52.285156 184.582031 C 51.632812 185.089844 50.714844 184.445312 50.976562 183.660156 L 56.847656 166.046875 C 57.152344 165.128906 56.46875 164.179688 55.5 164.179688 L 46.546875 164.179688 C 43.652344 164.179688 41.304688 161.832031 41.304688 158.9375 L 41.304688 88.515625 C 41.308594 85.621094 43.65625 83.277344 46.550781 83.277344 Z M 46.550781 83.277344 " fill-opacity="1" fill-rule="nonzero"/></g><path fill="#e7ded9" d="M 161.03125 58.652344 C 161.03125 62.539062 164.183594 65.6875 168.066406 65.6875 C 171.949219 65.6875 175.101562 62.539062 175.101562 58.652344 C 175.101562 54.769531 171.949219 51.617188 168.066406 51.617188 C 164.183594 51.617188 161.03125 54.769531 161.03125 58.652344 Z M 189.421875 51.617188 C 193.308594 51.617188 196.457031 54.769531 196.457031 58.652344 C 196.457031 62.539062 193.308594 65.6875 189.421875 65.6875 C 185.539062 65.6875 182.386719 62.539062 182.386719 58.652344 C 182.386719 54.769531 185.539062 51.617188 189.421875 51.617188 Z M 139.675781 58.652344 C 139.675781 62.539062 142.824219 65.6875 146.710938 65.6875 C 150.59375 65.6875 153.746094 62.539062 153.746094 58.652344 C 153.746094 54.769531 150.59375 51.617188 146.710938 51.617188 C 142.824219 51.617188 139.675781 54.769531 139.675781 58.652344 Z M 75.445312 136.542969 L 154.410156 136.542969 C 155.917969 136.542969 157.136719 135.320312 157.136719 133.8125 L 157.136719 129.722656 C 157.136719 128.214844 155.917969 126.992188 154.410156 126.992188 L 75.445312 126.992188 C 73.9375 126.992188 72.714844 128.214844 72.714844 129.722656 L 72.714844 133.8125 C 72.714844 135.320312 73.9375 136.542969 75.445312 136.542969 Z M 57.855469 144.582031 L 171.996094 144.582031 C 173.503906 144.582031 174.726562 145.800781 174.726562 147.308594 L 174.726562 151.398438 C 174.726562 152.90625 173.503906 154.128906 171.996094 154.128906 L 57.855469 154.128906 C 56.347656 154.128906 55.128906 152.90625 55.128906 151.398438 L 55.128906 147.308594 C 55.128906 145.800781 56.347656 144.582031 57.855469 144.582031 Z M 57.855469 144.582031 " fill-opacity="1" fill-rule="nonzero"/><path fill="#ffbd00" d="M 114.925781 89.304688 L 110.394531 98.488281 L 100.257812 99.957031 L 107.589844 107.105469 L 105.863281 117.195312 L 114.925781 112.429688 L 123.992188 117.195312 L 122.261719 107.105469 L 129.59375 99.957031 L 119.460938 98.488281 Z M 145.101562 91.6875 L 141.34375 99.300781 L 132.941406 100.523438 L 139.023438 106.449219 L 137.585938 114.824219 L 145.101562 110.875 L 152.621094 114.824219 L 151.183594 106.449219 L 157.261719 100.523438 L 148.859375 99.300781 Z M 84.75 91.6875 L 80.992188 99.300781 L 72.589844 100.523438 L 78.671875 106.449219 L 77.234375 114.824219 L 84.75 110.875 L 92.269531 114.824219 L 90.832031 106.449219 L 96.910156 100.523438 L 88.511719 99.300781 Z M 58.003906 94.527344 L 55.167969 100.273438 L 48.828125 101.195312 L 53.414062 105.667969 L 52.328125 111.984375 L 58.003906 109.003906 L 63.675781 111.984375 L 62.589844 105.667969 L 67.179688 101.195312 L 60.835938 100.273438 Z M 171.851562 94.527344 L 169.015625 100.273438 L 162.675781 101.195312 L 167.261719 105.667969 L 166.175781 111.984375 L 171.851562 109.003906 L 177.523438 111.984375 L 176.4375 105.667969 L 181.027344 101.195312 L 174.683594 100.273438 Z M 171.851562 94.527344 " fill-opacity="1" fill-rule="nonzero"/></svg>