<svg xmlns="http://www.w3.org/2000/svg" xmlns:xlink="http://www.w3.org/1999/xlink" width="300" zoomAndPan="magnify" viewBox="0 0 224.87999 225" height="300" preserveAspectRatio="xMidYMid meet" version="1.0"><defs><clipPath id="5a647a5799"><path d="M 139 107 L 199.675781 107 L 199.675781 150 L 139 150 Z M 139 107 " clip-rule="nonzero"/></clipPath><clipPath id="36e1c542ec"><path d="M 138 106 L 199.675781 106 L 199.675781 151 L 138 151 Z M 138 106 " clip-rule="nonzero"/></clipPath><clipPath id="0be27388c6"><path d="M 25.019531 107 L 86 107 L 86 150 L 25.019531 150 Z M 25.019531 107 " clip-rule="nonzero"/></clipPath><clipPath id="fc1721a1c6"><path d="M 25.019531 106 L 86 106 L 86 151 L 25.019531 151 Z M 25.019531 106 " clip-rule="nonzero"/></clipPath><clipPath id="f7d8c8b1bf"><path d="M 53 54.804688 L 172 54.804688 L 172 170.242188 L 53 170.242188 Z M 53 54.804688 " clip-rule="nonzero"/></clipPath></defs><g clip-path="url(#5a647a5799)"><path fill="#fffbae" d="M 197.109375 123.285156 C 182.113281 115.96875 162.625 110.300781 143.242188 107.457031 C 143.226562 107.445312 139.445312 135.085938 139.445312 135.085938 C 139.449219 135.085938 139.453125 135.085938 139.457031 135.089844 C 156.765625 137.464844 172.496094 142.480469 185.34375 149.179688 C 186.738281 149.902344 188.375 149.589844 189.433594 148.550781 C 189.972656 148.019531 190.101562 147.191406 189.8125 146.492188 L 184.183594 132.671875 C 184.003906 132.226562 184.253906 131.722656 184.71875 131.597656 L 197.628906 128.207031 C 198.453125 127.988281 199.085938 127.253906 199.070312 126.398438 C 199.046875 125.109375 198.332031 123.882812 197.109375 123.285156 Z M 197.109375 123.285156 " fill-opacity="1" fill-rule="nonzero"/></g><g clip-path="url(#36e1c542ec)"><path fill="#000000" d="M 186.953125 150.128906 C 186.320312 150.128906 185.679688 149.976562 185.085938 149.667969 C 171.871094 142.78125 156.066406 137.929688 139.382812 135.636719 C 139.238281 135.617188 139.097656 135.539062 139.007812 135.421875 C 138.921875 135.304688 138.875 135.15625 138.894531 135.007812 L 140.789062 121.195312 C 142.078125 111.777344 142.828125 107.027344 143.03125 106.941406 C 143.121094 106.902344 143.222656 106.890625 143.324219 106.90625 C 162.851562 109.773438 182.546875 115.5625 197.351562 122.785156 C 198.726562 123.453125 199.597656 124.835938 199.628906 126.386719 C 199.648438 127.464844 198.867188 128.457031 197.769531 128.742188 L 184.863281 132.136719 C 184.769531 132.160156 184.726562 132.226562 184.707031 132.261719 C 184.6875 132.296875 184.664062 132.371094 184.699219 132.460938 L 190.328125 146.277344 C 190.707031 147.207031 190.5 148.277344 189.820312 148.945312 C 189.03125 149.722656 187.996094 150.125 186.953125 150.125 Z M 140.070312 134.613281 C 156.699219 136.953125 172.421875 141.8125 185.601562 148.683594 C 186.734375 149.273438 188.117188 149.0625 189.042969 148.152344 C 189.40625 147.796875 189.507812 147.214844 189.300781 146.699219 L 183.671875 132.882812 C 183.523438 132.519531 183.539062 132.113281 183.714844 131.765625 C 183.886719 131.417969 184.203125 131.160156 184.578125 131.058594 L 197.488281 127.667969 C 198.09375 127.507812 198.527344 126.980469 198.515625 126.40625 C 198.496094 125.277344 197.863281 124.269531 196.867188 123.785156 C 182.296875 116.675781 162.953125 110.964844 143.714844 108.089844 C 143.292969 111.101562 141.25 126 140.070312 134.613281 Z M 140.070312 134.613281 " fill-opacity="1" fill-rule="nonzero"/></g><g clip-path="url(#0be27388c6)"><path fill="#fffbae" d="M 27.578125 123.285156 C 42.574219 115.96875 62.058594 110.300781 81.445312 107.457031 C 81.457031 107.445312 85.242188 135.085938 85.242188 135.085938 C 85.238281 135.085938 85.230469 135.085938 85.226562 135.089844 C 67.921875 137.464844 52.1875 142.480469 39.34375 149.179688 C 37.949219 149.902344 36.308594 149.589844 35.253906 148.550781 C 34.714844 148.019531 34.585938 147.191406 34.871094 146.492188 L 40.5 132.671875 C 40.683594 132.226562 40.433594 131.722656 39.964844 131.597656 L 27.058594 128.207031 C 26.230469 127.988281 25.597656 127.253906 25.613281 126.398438 C 25.636719 125.109375 26.355469 123.882812 27.578125 123.285156 Z M 27.578125 123.285156 " fill-opacity="1" fill-rule="nonzero"/></g><g clip-path="url(#fc1721a1c6)"><path fill="#000000" d="M 37.730469 150.128906 C 36.6875 150.128906 35.652344 149.722656 34.867188 148.949219 C 34.183594 148.277344 33.980469 147.207031 34.359375 146.28125 L 39.988281 132.460938 C 40.023438 132.371094 40 132.300781 39.980469 132.261719 C 39.960938 132.226562 39.917969 132.160156 39.824219 132.136719 L 26.917969 128.742188 C 25.820312 128.457031 25.039062 127.464844 25.058594 126.386719 C 25.085938 124.835938 25.960938 123.457031 27.335938 122.785156 C 42.140625 115.5625 61.832031 109.773438 81.363281 106.90625 C 81.464844 106.890625 81.566406 106.902344 81.65625 106.941406 C 81.859375 107.027344 82.605469 111.777344 83.898438 121.195312 L 85.792969 135.007812 C 85.8125 135.15625 85.769531 135.308594 85.679688 135.425781 C 85.589844 135.542969 85.453125 135.621094 85.304688 135.636719 C 68.621094 137.929688 52.816406 142.78125 39.597656 149.667969 C 39.007812 149.976562 38.367188 150.128906 37.730469 150.128906 Z M 80.976562 108.089844 C 61.734375 110.964844 42.386719 116.675781 27.824219 123.785156 C 26.824219 124.273438 26.191406 125.277344 26.171875 126.40625 C 26.160156 126.980469 26.59375 127.507812 27.199219 127.667969 L 40.109375 131.058594 C 40.484375 131.160156 40.800781 131.414062 40.976562 131.765625 C 41.148438 132.113281 41.164062 132.519531 41.015625 132.882812 L 35.386719 146.699219 C 35.179688 147.210938 35.28125 147.796875 35.644531 148.152344 C 36.570312 149.0625 37.953125 149.273438 39.085938 148.683594 C 52.273438 141.808594 68.007812 136.945312 84.617188 134.609375 C 83.4375 126 81.398438 111.101562 80.976562 108.085938 Z M 27.578125 123.285156 L 27.589844 123.285156 Z M 27.578125 123.285156 " fill-opacity="1" fill-rule="nonzero"/></g><path fill="#ff9fff" d="M 124.582031 169.671875 C 122.53125 169.671875 120.441406 168 118.230469 166.230469 C 116.207031 164.609375 114.113281 162.933594 112.34375 162.933594 C 110.574219 162.933594 108.480469 164.609375 106.457031 166.230469 C 104.246094 168 102.15625 169.671875 100.109375 169.671875 C 99.84375 169.671875 99.585938 169.644531 99.339844 169.585938 C 96.964844 169.046875 95.570312 166.132812 94.222656 163.320312 C 93.132812 161.039062 92.003906 158.683594 90.496094 157.953125 C 90.003906 157.71875 89.386719 157.601562 88.613281 157.601562 C 87.21875 157.601562 85.515625 157.988281 83.871094 158.367188 C 82.175781 158.753906 80.417969 159.15625 78.910156 159.15625 C 77.625 159.15625 76.640625 158.867188 75.902344 158.273438 C 74.03125 156.777344 74.03125 153.574219 74.035156 150.480469 C 74.039062 147.925781 74.042969 145.289062 72.976562 143.949219 C 71.921875 142.625 69.359375 142.046875 66.882812 141.488281 C 63.855469 140.800781 60.726562 140.09375 59.679688 137.917969 C 58.652344 135.789062 60.03125 132.925781 61.363281 130.160156 C 62.480469 127.84375 63.632812 125.445312 63.25 123.742188 C 62.882812 122.132812 60.855469 120.515625 58.890625 118.957031 C 56.4375 117.003906 53.902344 114.984375 53.902344 112.515625 C 53.902344 110.046875 56.4375 108.027344 58.890625 106.074219 C 60.855469 104.515625 62.882812 102.902344 63.25 101.289062 C 63.632812 99.585938 62.480469 97.191406 61.363281 94.871094 C 60.03125 92.105469 58.652344 89.242188 59.679688 87.113281 C 60.726562 84.933594 63.859375 84.226562 66.886719 83.542969 C 69.363281 82.980469 71.921875 82.402344 72.980469 81.078125 C 74.042969 79.742188 74.042969 77.101562 74.039062 74.550781 C 74.035156 71.453125 74.03125 68.253906 75.902344 66.753906 C 76.644531 66.164062 77.628906 65.875 78.910156 65.875 C 80.421875 65.875 82.175781 66.277344 83.875 66.664062 C 85.515625 67.039062 87.21875 67.429688 88.613281 67.429688 C 89.386719 67.429688 90.003906 67.3125 90.496094 67.074219 C 92.003906 66.347656 93.132812 63.992188 94.222656 61.714844 C 95.570312 58.894531 96.964844 55.984375 99.339844 55.441406 C 99.585938 55.386719 99.84375 55.359375 100.109375 55.359375 C 102.15625 55.359375 104.246094 57.03125 106.457031 58.800781 C 108.480469 60.421875 110.574219 62.09375 112.34375 62.09375 C 114.113281 62.09375 116.207031 60.421875 118.230469 58.800781 C 120.441406 57.03125 122.53125 55.359375 124.582031 55.359375 C 124.84375 55.359375 125.101562 55.386719 125.347656 55.441406 C 127.726562 55.984375 129.121094 58.894531 130.46875 61.714844 C 131.558594 63.992188 132.6875 66.347656 134.195312 67.078125 C 134.6875 67.316406 135.304688 67.429688 136.078125 67.429688 C 137.472656 67.429688 139.171875 67.042969 140.816406 66.664062 C 142.515625 66.277344 144.269531 65.875 145.78125 65.875 C 147.0625 65.875 148.046875 66.164062 148.789062 66.757812 C 150.660156 68.253906 150.65625 71.457031 150.652344 74.550781 C 150.652344 77.101562 150.648438 79.742188 151.710938 81.078125 C 152.769531 82.402344 155.328125 82.984375 157.804688 83.542969 C 160.832031 84.230469 163.964844 84.9375 165.011719 87.113281 C 166.039062 89.242188 164.660156 92.105469 163.328125 94.871094 C 162.210938 97.191406 161.054688 99.585938 161.441406 101.289062 C 161.808594 102.902344 163.835938 104.515625 165.796875 106.074219 C 168.25 108.027344 170.789062 110.046875 170.789062 112.515625 C 170.789062 114.984375 168.253906 117 165.800781 118.953125 C 163.835938 120.515625 161.808594 122.128906 161.445312 123.742188 C 161.058594 125.441406 162.210938 127.839844 163.328125 130.15625 C 164.660156 132.925781 166.039062 135.785156 165.011719 137.917969 C 163.964844 140.09375 160.832031 140.800781 157.804688 141.488281 C 155.332031 142.046875 152.769531 142.625 151.714844 143.949219 C 150.648438 145.285156 150.652344 147.925781 150.652344 150.480469 C 150.65625 153.574219 150.660156 156.777344 148.789062 158.273438 C 148.046875 158.867188 147.0625 159.152344 145.777344 159.152344 C 144.269531 159.152344 142.515625 158.753906 140.816406 158.363281 C 139.171875 157.988281 137.472656 157.597656 136.074219 157.597656 C 135.304688 157.597656 134.6875 157.714844 134.195312 157.953125 C 132.6875 158.679688 131.558594 161.039062 130.46875 163.316406 C 129.121094 166.132812 127.726562 169.046875 125.351562 169.585938 C 125.101562 169.640625 124.84375 169.671875 124.582031 169.671875 Z M 124.582031 169.671875 " fill-opacity="1" fill-rule="nonzero"/><g clip-path="url(#f7d8c8b1bf)"><path fill="#000000" d="M 124.578125 55.914062 C 124.796875 55.914062 125.011719 55.9375 125.222656 55.988281 C 129.203125 56.894531 130.359375 65.84375 133.949219 67.578125 C 134.558594 67.871094 135.28125 67.988281 136.074219 67.988281 C 138.988281 67.988281 142.878906 66.433594 145.777344 66.433594 C 146.824219 66.433594 147.742188 66.636719 148.4375 67.195312 C 151.585938 69.710938 148.761719 78.273438 151.273438 81.429688 C 153.777344 84.566406 162.746094 83.703125 164.507812 87.355469 C 166.238281 90.953125 159.992188 97.429688 160.898438 101.414062 C 161.773438 105.273438 170.230469 108.390625 170.230469 112.515625 C 170.230469 116.644531 161.773438 119.761719 160.898438 123.621094 C 159.992188 127.605469 166.238281 134.082031 164.507812 137.675781 C 162.746094 141.332031 153.777344 140.46875 151.273438 143.605469 C 148.761719 146.761719 151.585938 155.324219 148.4375 157.839844 C 147.742188 158.394531 146.824219 158.601562 145.777344 158.601562 C 142.878906 158.601562 138.984375 157.046875 136.074219 157.046875 C 135.277344 157.046875 134.558594 157.160156 133.949219 157.453125 C 130.359375 159.1875 129.203125 168.140625 125.222656 169.046875 C 125.011719 169.09375 124.796875 169.117188 124.578125 169.117188 C 120.832031 169.117188 116.234375 162.378906 112.339844 162.378906 C 108.445312 162.378906 103.851562 169.117188 100.101562 169.117188 C 99.886719 169.117188 99.671875 169.09375 99.457031 169.046875 C 95.480469 168.136719 94.324219 159.1875 90.734375 157.453125 C 90.125 157.160156 89.402344 157.042969 88.609375 157.042969 C 85.695312 157.042969 81.804688 158.597656 78.90625 158.597656 C 77.859375 158.597656 76.9375 158.394531 76.246094 157.839844 C 73.09375 155.320312 75.921875 146.757812 73.40625 143.601562 C 70.90625 140.464844 61.933594 141.328125 60.175781 137.675781 C 58.441406 134.078125 64.691406 127.601562 63.785156 123.617188 C 62.910156 119.757812 54.453125 116.640625 54.453125 112.515625 C 54.453125 108.390625 62.910156 105.273438 63.785156 101.414062 C 64.691406 97.429688 58.441406 90.949219 60.175781 87.355469 C 61.933594 83.699219 70.90625 84.566406 73.40625 81.425781 C 75.921875 78.273438 73.09375 69.710938 76.246094 67.191406 C 76.9375 66.636719 77.859375 66.433594 78.90625 66.433594 C 81.804688 66.433594 85.695312 67.988281 88.609375 67.988281 C 89.402344 67.988281 90.125 67.871094 90.734375 67.578125 C 94.324219 65.84375 95.480469 56.894531 99.460938 55.988281 C 99.671875 55.941406 99.886719 55.917969 100.105469 55.917969 C 103.851562 55.917969 108.449219 62.652344 112.34375 62.652344 C 116.234375 62.652344 120.832031 55.917969 124.578125 55.917969 M 124.578125 54.804688 C 122.335938 54.804688 120.070312 56.617188 117.882812 58.367188 C 115.933594 59.929688 113.917969 61.539062 112.34375 61.539062 C 110.765625 61.539062 108.75 59.925781 106.800781 58.367188 C 104.613281 56.613281 102.351562 54.804688 100.105469 54.804688 C 99.804688 54.804688 99.503906 54.835938 99.214844 54.902344 C 96.578125 55.503906 95.125 58.539062 93.71875 61.472656 C 92.671875 63.664062 91.585938 65.933594 90.253906 66.578125 C 89.839844 66.777344 89.300781 66.875 88.613281 66.875 C 87.28125 66.875 85.609375 66.492188 83.996094 66.125 C 82.265625 65.730469 80.480469 65.320312 78.910156 65.320312 C 77.496094 65.320312 76.398438 65.648438 75.554688 66.324219 C 73.472656 67.988281 73.476562 71.324219 73.480469 74.554688 C 73.484375 77.011719 73.488281 79.550781 72.542969 80.734375 C 71.605469 81.90625 69.144531 82.464844 66.761719 83.003906 C 63.605469 83.71875 60.34375 84.457031 59.175781 86.875 C 58.035156 89.246094 59.472656 92.230469 60.859375 95.117188 C 61.933594 97.347656 63.046875 99.65625 62.703125 101.167969 C 62.382812 102.589844 60.429688 104.140625 58.542969 105.640625 C 55.984375 107.675781 53.34375 109.78125 53.34375 112.515625 C 53.34375 115.253906 55.984375 117.355469 58.542969 119.390625 C 60.429688 120.894531 62.378906 122.445312 62.703125 123.867188 C 63.046875 125.378906 61.933594 127.6875 60.859375 129.917969 C 59.46875 132.804688 58.03125 135.789062 59.175781 138.160156 C 60.339844 140.578125 63.605469 141.316406 66.757812 142.03125 C 69.140625 142.570312 71.605469 143.128906 72.542969 144.300781 C 73.484375 145.484375 73.480469 148.023438 73.480469 150.480469 C 73.476562 153.707031 73.472656 157.046875 75.554688 158.710938 C 76.398438 159.382812 77.496094 159.710938 78.910156 159.710938 C 80.480469 159.710938 82.265625 159.304688 83.996094 158.910156 C 85.609375 158.539062 87.277344 158.160156 88.609375 158.160156 C 89.300781 158.160156 89.835938 158.257812 90.253906 158.457031 C 91.585938 159.101562 92.671875 161.367188 93.71875 163.558594 C 95.125 166.496094 96.578125 169.53125 99.21875 170.132812 C 99.503906 170.195312 99.804688 170.230469 100.109375 170.230469 C 102.351562 170.230469 104.617188 168.417969 106.804688 166.667969 C 108.753906 165.105469 110.769531 163.496094 112.34375 163.496094 C 113.921875 163.496094 115.9375 165.109375 117.886719 166.667969 C 120.074219 168.417969 122.335938 170.230469 124.582031 170.230469 C 124.886719 170.230469 125.183594 170.195312 125.472656 170.132812 C 128.109375 169.53125 129.5625 166.496094 130.96875 163.558594 C 132.015625 161.367188 133.101562 159.101562 134.433594 158.457031 C 134.851562 158.257812 135.386719 158.160156 136.074219 158.160156 C 137.410156 158.160156 139.078125 158.539062 140.691406 158.910156 C 142.417969 159.304688 144.207031 159.714844 145.777344 159.714844 C 147.191406 159.714844 148.289062 159.386719 149.132812 158.710938 C 151.214844 157.046875 151.210938 153.707031 151.207031 150.480469 C 151.207031 148.023438 151.203125 145.484375 152.144531 144.300781 C 153.082031 143.128906 155.542969 142.570312 157.925781 142.03125 C 161.082031 141.316406 164.347656 140.578125 165.511719 138.160156 C 166.652344 135.789062 165.21875 132.804688 163.828125 129.917969 C 162.753906 127.6875 161.640625 125.378906 161.984375 123.867188 C 162.304688 122.445312 164.257812 120.894531 166.144531 119.394531 C 168.703125 117.359375 171.347656 115.253906 171.347656 112.519531 C 171.347656 109.78125 168.703125 107.679688 166.144531 105.644531 C 164.257812 104.140625 162.308594 102.589844 161.984375 101.167969 C 161.640625 99.65625 162.753906 97.347656 163.828125 95.117188 C 165.21875 92.230469 166.65625 89.246094 165.511719 86.875 C 164.347656 84.457031 161.085938 83.71875 157.929688 83.003906 C 155.546875 82.464844 153.082031 81.90625 152.148438 80.734375 C 151.203125 79.550781 151.207031 77.011719 151.207031 74.554688 C 151.210938 71.328125 151.214844 67.988281 149.132812 66.324219 C 148.292969 65.652344 147.191406 65.324219 145.777344 65.324219 C 144.207031 65.324219 142.421875 65.730469 140.695312 66.125 C 139.078125 66.496094 137.410156 66.875 136.078125 66.875 C 135.390625 66.875 134.851562 66.777344 134.4375 66.578125 C 133.101562 65.933594 132.019531 63.667969 130.96875 61.476562 C 129.5625 58.539062 128.109375 55.503906 125.472656 54.902344 C 125.183594 54.835938 124.886719 54.804688 124.582031 54.804688 Z M 124.578125 54.804688 " fill-opacity="1" fill-rule="nonzero"/></g><path fill="#ffffff" d="M 151.800781 96.148438 C 152.335938 97.441406 152.804688 98.761719 153.210938 100.101562 C 153.617188 101.441406 153.957031 102.796875 154.230469 104.171875 C 154.503906 105.546875 154.707031 106.929688 154.847656 108.324219 C 154.984375 109.71875 155.050781 111.113281 155.050781 112.515625 C 155.050781 113.917969 154.984375 115.3125 154.847656 116.707031 C 154.707031 118.101562 154.503906 119.484375 154.230469 120.859375 C 153.957031 122.234375 153.617188 123.589844 153.210938 124.929688 C 152.804688 126.269531 152.335938 127.589844 151.800781 128.882812 C 151.265625 130.175781 150.667969 131.441406 150.007812 132.675781 C 149.347656 133.910156 148.632812 135.113281 147.855469 136.277344 C 147.078125 137.441406 146.246094 138.566406 145.355469 139.648438 C 144.46875 140.730469 143.53125 141.765625 142.542969 142.757812 C 141.554688 143.746094 140.519531 144.6875 139.4375 145.574219 C 138.355469 146.464844 137.234375 147.296875 136.070312 148.074219 C 134.90625 148.855469 133.710938 149.574219 132.476562 150.234375 C 131.242188 150.894531 129.980469 151.492188 128.6875 152.027344 C 127.394531 152.5625 126.078125 153.035156 124.742188 153.441406 C 123.402344 153.847656 122.046875 154.1875 120.675781 154.460938 C 119.304688 154.734375 117.921875 154.941406 116.53125 155.078125 C 115.136719 155.214844 113.742188 155.285156 112.34375 155.285156 C 110.945312 155.285156 109.550781 155.214844 108.15625 155.078125 C 106.765625 154.941406 105.382812 154.734375 104.011719 154.460938 C 102.640625 154.1875 101.285156 153.847656 99.945312 153.441406 C 98.609375 153.035156 97.292969 152.5625 96 152.027344 C 94.707031 151.492188 93.445312 150.894531 92.210938 150.234375 C 90.976562 149.574219 89.78125 148.855469 88.617188 148.074219 C 87.453125 147.296875 86.332031 146.464844 85.25 145.574219 C 84.167969 144.6875 83.132812 143.746094 82.144531 142.757812 C 81.15625 141.765625 80.21875 140.730469 79.332031 139.648438 C 78.441406 138.566406 77.609375 137.441406 76.835938 136.277344 C 76.058594 135.113281 75.339844 133.910156 74.679688 132.675781 C 74.019531 131.441406 73.421875 130.175781 72.886719 128.882812 C 72.351562 127.589844 71.882812 126.269531 71.476562 124.929688 C 71.070312 123.589844 70.730469 122.234375 70.457031 120.859375 C 70.183594 119.484375 69.980469 118.101562 69.84375 116.707031 C 69.703125 115.3125 69.636719 113.917969 69.636719 112.515625 C 69.636719 111.113281 69.703125 109.71875 69.84375 108.324219 C 69.980469 106.929688 70.183594 105.546875 70.457031 104.171875 C 70.730469 102.796875 71.070312 101.441406 71.476562 100.101562 C 71.882812 98.761719 72.351562 97.441406 72.886719 96.148438 C 73.421875 94.855469 74.019531 93.589844 74.679688 92.355469 C 75.339844 91.121094 76.058594 89.917969 76.835938 88.753906 C 77.609375 87.589844 78.441406 86.46875 79.332031 85.382812 C 80.21875 84.300781 81.15625 83.265625 82.144531 82.273438 C 83.132812 81.285156 84.167969 80.34375 85.25 79.457031 C 86.332031 78.566406 87.453125 77.734375 88.617188 76.957031 C 89.78125 76.175781 90.976562 75.457031 92.210938 74.796875 C 93.445312 74.136719 94.707031 73.539062 96 73.003906 C 97.292969 72.46875 98.609375 71.996094 99.945312 71.589844 C 101.285156 71.183594 102.640625 70.84375 104.011719 70.570312 C 105.382812 70.296875 106.765625 70.089844 108.15625 69.953125 C 109.550781 69.816406 110.945312 69.746094 112.34375 69.746094 C 113.742188 69.746094 115.136719 69.816406 116.53125 69.953125 C 117.921875 70.089844 119.304688 70.296875 120.675781 70.570312 C 122.046875 70.84375 123.402344 71.183594 124.742188 71.589844 C 126.078125 71.996094 127.394531 72.46875 128.6875 73.003906 C 129.980469 73.539062 131.242188 74.136719 132.476562 74.796875 C 133.710938 75.457031 134.90625 76.175781 136.070312 76.957031 C 137.234375 77.734375 138.355469 78.566406 139.4375 79.457031 C 140.519531 80.34375 141.554688 81.285156 142.542969 82.273438 C 143.53125 83.265625 144.46875 84.300781 145.355469 85.382812 C 146.246094 86.46875 147.078125 87.589844 147.855469 88.753906 C 148.632812 89.917969 149.347656 91.121094 150.007812 92.355469 C 150.667969 93.589844 151.265625 94.855469 151.800781 96.148438 Z M 151.800781 96.148438 " fill-opacity="1" fill-rule="nonzero"/><path fill="#000000" d="M 112.34375 70.304688 C 135.625 70.304688 154.496094 89.203125 154.496094 112.515625 C 154.496094 135.828125 135.625 154.726562 112.34375 154.726562 C 89.0625 154.726562 70.191406 135.828125 70.191406 112.515625 C 70.191406 89.203125 89.0625 70.304688 112.34375 70.304688 M 112.34375 69.191406 C 88.488281 69.191406 69.082031 88.628906 69.082031 112.515625 C 69.082031 136.402344 88.488281 155.839844 112.34375 155.839844 C 136.199219 155.839844 155.605469 136.402344 155.605469 112.515625 C 155.605469 88.628906 136.199219 69.191406 112.34375 69.191406 Z M 112.34375 69.191406 " fill-opacity="1" fill-rule="nonzero"/><path fill="#fffbae" d="M 112.34375 107.792969 C 90.617188 107.792969 70.511719 110.984375 53.019531 116.734375 C 51.097656 117.367188 50.035156 119.433594 50.59375 121.386719 L 56.835938 143.304688 C 57.433594 145.40625 59.671875 146.589844 61.722656 145.855469 C 76.296875 140.632812 93.675781 137.609375 112.34375 137.609375 C 131.011719 137.609375 148.390625 140.632812 162.964844 145.855469 C 165.015625 146.589844 167.253906 145.40625 167.851562 143.304688 L 174.09375 121.386719 C 174.648438 119.433594 173.59375 117.367188 171.667969 116.734375 C 154.175781 110.984375 134.070312 107.792969 112.34375 107.792969 Z M 112.34375 107.792969 " fill-opacity="1" fill-rule="nonzero"/><path fill="#000000" d="M 164.222656 146.632812 C 163.734375 146.632812 163.25 146.546875 162.777344 146.378906 C 147.785156 141.003906 130.34375 138.164062 112.34375 138.164062 C 94.339844 138.164062 76.902344 141.003906 61.910156 146.378906 C 60.78125 146.78125 59.574219 146.699219 58.503906 146.152344 C 57.433594 145.601562 56.628906 144.621094 56.300781 143.457031 L 50.058594 121.539062 C 49.414062 119.273438 50.640625 116.929688 52.847656 116.203125 C 70.949219 110.257812 90.964844 107.238281 112.34375 107.238281 C 133.71875 107.238281 153.738281 110.253906 171.835938 116.203125 C 174.046875 116.929688 175.273438 119.273438 174.625 121.539062 L 168.382812 143.457031 C 168.054688 144.617188 167.25 145.601562 166.179688 146.152344 C 165.558594 146.46875 164.890625 146.632812 164.21875 146.632812 Z M 112.34375 137.050781 C 130.46875 137.050781 148.039062 139.914062 163.152344 145.332031 C 163.988281 145.628906 164.882812 145.570312 165.675781 145.160156 C 166.472656 144.75 167.070312 144.019531 167.316406 143.152344 L 173.558594 121.230469 C 174.039062 119.542969 173.132812 117.800781 171.492188 117.261719 C 153.503906 111.347656 133.605469 108.351562 112.34375 108.351562 C 91.082031 108.351562 71.183594 111.347656 53.195312 117.261719 C 51.554688 117.800781 50.648438 119.542969 51.128906 121.230469 L 57.371094 143.152344 C 57.617188 144.019531 58.214844 144.75 59.011719 145.160156 C 59.804688 145.570312 60.703125 145.628906 61.535156 145.332031 C 76.648438 139.914062 94.21875 137.050781 112.34375 137.050781 Z M 112.34375 137.050781 " fill-opacity="1" fill-rule="nonzero"/><path fill="#000000" d="M 72.914062 119.363281 C 72.914062 119.363281 72.921875 119.363281 72.925781 119.363281 C 72.992188 119.367188 73.058594 119.402344 73.09375 119.472656 L 75.222656 123.789062 C 75.25 123.847656 75.304688 123.886719 75.371094 123.898438 L 80.128906 124.589844 C 80.292969 124.613281 80.355469 124.816406 80.238281 124.929688 L 76.796875 128.289062 C 76.75 128.335938 76.730469 128.398438 76.742188 128.464844 L 77.554688 133.210938 C 77.574219 133.339844 77.472656 133.441406 77.359375 133.441406 C 77.328125 133.441406 77.296875 133.433594 77.265625 133.417969 L 73.011719 131.179688 C 72.984375 131.167969 72.957031 131.160156 72.929688 131.15625 C 72.925781 131.15625 72.921875 131.15625 72.917969 131.15625 C 72.886719 131.15625 72.851562 131.164062 72.824219 131.179688 L 68.570312 133.417969 C 68.542969 133.433594 68.507812 133.441406 68.480469 133.441406 C 68.363281 133.441406 68.261719 133.339844 68.285156 133.210938 L 69.097656 128.464844 C 69.109375 128.398438 69.085938 128.335938 69.039062 128.289062 L 65.597656 124.929688 C 65.480469 124.816406 65.542969 124.613281 65.707031 124.589844 L 70.464844 123.898438 C 70.527344 123.890625 70.585938 123.847656 70.613281 123.789062 L 72.742188 119.472656 C 72.777344 119.398438 72.847656 119.363281 72.921875 119.363281 M 72.921875 118.25 C 72.417969 118.25 71.96875 118.527344 71.746094 118.980469 L 69.832031 122.863281 L 65.546875 123.488281 C 65.050781 123.558594 64.644531 123.902344 64.492188 124.378906 C 64.335938 124.859375 64.464844 125.375 64.820312 125.722656 L 67.921875 128.75 L 67.1875 133.019531 C 67.121094 133.402344 67.226562 133.789062 67.476562 134.085938 C 67.726562 134.382812 68.09375 134.554688 68.480469 134.554688 C 68.691406 134.554688 68.902344 134.5 69.085938 134.402344 L 72.917969 132.386719 L 76.75 134.402344 C 76.9375 134.5 77.148438 134.554688 77.359375 134.554688 C 77.746094 134.554688 78.109375 134.382812 78.359375 134.085938 C 78.609375 133.789062 78.714844 133.402344 78.648438 133.019531 L 77.917969 128.75 L 81.015625 125.722656 C 81.375 125.371094 81.5 124.855469 81.347656 124.378906 C 81.191406 123.902344 80.785156 123.558594 80.289062 123.488281 L 76.007812 122.863281 L 74.089844 118.980469 C 73.878906 118.550781 73.453125 118.273438 72.980469 118.25 C 72.960938 118.25 72.933594 118.25 72.917969 118.25 Z M 72.921875 118.25 " fill-opacity="1" fill-rule="nonzero"/><path fill="#fbb040" d="M 80.238281 124.929688 C 80.355469 124.816406 80.292969 124.613281 80.128906 124.589844 L 75.371094 123.898438 C 75.304688 123.890625 75.25 123.847656 75.222656 123.789062 L 73.09375 119.472656 C 73.058594 119.402344 72.992188 119.367188 72.925781 119.363281 C 72.851562 119.359375 72.773438 119.394531 72.738281 119.472656 L 70.609375 123.789062 C 70.578125 123.847656 70.523438 123.886719 70.460938 123.898438 L 65.703125 124.589844 C 65.539062 124.613281 65.472656 124.8125 65.589844 124.929688 L 69.035156 128.289062 C 69.082031 128.332031 69.101562 128.398438 69.089844 128.464844 L 68.277344 133.207031 C 68.25 133.371094 68.421875 133.496094 68.566406 133.417969 L 72.820312 131.179688 C 72.851562 131.160156 72.886719 131.15625 72.921875 131.15625 C 72.953125 131.160156 72.980469 131.164062 73.007812 131.179688 L 77.261719 133.417969 C 77.40625 133.496094 77.578125 133.371094 77.550781 133.207031 L 76.738281 128.464844 C 76.726562 128.398438 76.746094 128.332031 76.792969 128.289062 Z M 80.238281 124.929688 " fill-opacity="1" fill-rule="nonzero"/><path fill="#000000" d="M 92.628906 116.589844 C 92.628906 116.589844 92.636719 116.589844 92.640625 116.589844 C 92.707031 116.589844 92.773438 116.628906 92.808594 116.699219 L 94.9375 121.015625 C 94.964844 121.074219 95.019531 121.113281 95.085938 121.125 L 99.84375 121.816406 C 100.007812 121.839844 100.070312 122.042969 99.953125 122.15625 L 96.511719 125.515625 C 96.464844 125.5625 96.441406 125.625 96.453125 125.691406 L 97.265625 130.433594 C 97.289062 130.566406 97.1875 130.667969 97.070312 130.667969 C 97.042969 130.667969 97.007812 130.660156 96.980469 130.644531 L 92.722656 128.40625 C 92.699219 128.390625 92.671875 128.386719 92.640625 128.382812 C 92.636719 128.382812 92.632812 128.382812 92.628906 128.382812 C 92.597656 128.382812 92.566406 128.390625 92.539062 128.40625 L 88.285156 130.644531 C 88.253906 130.660156 88.222656 130.667969 88.191406 130.667969 C 88.078125 130.667969 87.976562 130.566406 87.996094 130.433594 L 88.808594 125.691406 C 88.820312 125.625 88.800781 125.5625 88.753906 125.515625 L 85.308594 122.15625 C 85.191406 122.042969 85.257812 121.839844 85.421875 121.816406 L 90.179688 121.125 C 90.242188 121.117188 90.300781 121.074219 90.328125 121.015625 L 92.457031 116.699219 C 92.492188 116.625 92.5625 116.589844 92.632812 116.589844 M 92.632812 115.476562 C 92.132812 115.476562 91.683594 115.753906 91.460938 116.207031 L 89.542969 120.089844 L 85.261719 120.714844 C 84.765625 120.785156 84.359375 121.128906 84.203125 121.605469 C 84.050781 122.085938 84.175781 122.597656 84.535156 122.949219 L 87.632812 125.976562 L 86.902344 130.246094 C 86.835938 130.628906 86.941406 131.015625 87.191406 131.3125 C 87.441406 131.609375 87.804688 131.78125 88.191406 131.78125 C 88.402344 131.78125 88.613281 131.726562 88.800781 131.628906 L 92.632812 129.613281 L 96.460938 131.628906 C 96.648438 131.726562 96.859375 131.78125 97.070312 131.78125 C 97.457031 131.78125 97.824219 131.609375 98.074219 131.3125 C 98.320312 131.015625 98.425781 130.628906 98.363281 130.246094 L 97.628906 125.976562 L 100.726562 122.949219 C 101.089844 122.597656 101.214844 122.082031 101.058594 121.605469 C 100.902344 121.128906 100.5 120.785156 100.003906 120.714844 L 95.71875 120.089844 L 93.804688 116.207031 C 93.59375 115.777344 93.167969 115.5 92.691406 115.476562 C 92.675781 115.476562 92.648438 115.476562 92.628906 115.476562 Z M 92.632812 115.476562 " fill-opacity="1" fill-rule="nonzero"/><path fill="#fbb040" d="M 99.953125 122.15625 C 100.070312 122.039062 100.003906 121.839844 99.84375 121.816406 L 95.085938 121.125 C 95.019531 121.117188 94.964844 121.074219 94.9375 121.015625 L 92.808594 116.699219 C 92.773438 116.628906 92.707031 116.589844 92.640625 116.589844 C 92.566406 116.585938 92.488281 116.621094 92.453125 116.699219 L 90.324219 121.015625 C 90.292969 121.074219 90.238281 121.113281 90.171875 121.125 L 85.414062 121.816406 C 85.253906 121.839844 85.1875 122.042969 85.304688 122.15625 L 88.75 125.515625 C 88.796875 125.5625 88.816406 125.625 88.804688 125.691406 L 87.992188 130.433594 C 87.964844 130.597656 88.132812 130.722656 88.28125 130.644531 L 92.535156 128.40625 C 92.566406 128.390625 92.601562 128.382812 92.636719 128.382812 C 92.667969 128.386719 92.695312 128.390625 92.722656 128.40625 L 96.976562 130.644531 C 97.121094 130.722656 97.292969 130.597656 97.265625 130.433594 L 96.453125 125.691406 C 96.441406 125.625 96.460938 125.5625 96.507812 125.515625 L 99.949219 122.15625 Z M 99.953125 122.15625 " fill-opacity="1" fill-rule="nonzero"/><path fill="#000000" d="M 112.34375 115.203125 C 112.34375 115.203125 112.347656 115.203125 112.351562 115.203125 C 112.421875 115.207031 112.484375 115.242188 112.519531 115.3125 L 114.648438 119.628906 C 114.679688 119.6875 114.734375 119.730469 114.800781 119.738281 L 119.558594 120.429688 C 119.71875 120.453125 119.785156 120.65625 119.667969 120.769531 L 116.222656 124.128906 C 116.175781 124.175781 116.15625 124.242188 116.167969 124.304688 L 116.980469 129.050781 C 117.003906 129.179688 116.898438 129.285156 116.785156 129.285156 C 116.753906 129.285156 116.722656 129.277344 116.691406 129.261719 L 112.4375 127.019531 C 112.414062 127.007812 112.382812 127 112.355469 126.996094 C 112.351562 126.996094 112.347656 126.996094 112.34375 126.996094 C 112.3125 126.996094 112.28125 127.003906 112.253906 127.019531 L 108 129.261719 C 107.96875 129.277344 107.9375 129.285156 107.90625 129.285156 C 107.792969 129.285156 107.6875 129.179688 107.710938 129.050781 L 108.523438 124.304688 C 108.535156 124.242188 108.515625 124.175781 108.46875 124.128906 L 105.023438 120.769531 C 104.90625 120.65625 104.972656 120.453125 105.136719 120.429688 L 109.894531 119.738281 C 109.957031 119.730469 110.011719 119.6875 110.042969 119.628906 L 112.171875 115.3125 C 112.207031 115.238281 112.277344 115.203125 112.347656 115.203125 M 112.347656 114.089844 C 111.847656 114.089844 111.394531 114.371094 111.175781 114.820312 L 109.257812 118.707031 L 104.976562 119.328125 C 104.480469 119.402344 104.074219 119.742188 103.917969 120.21875 C 103.761719 120.699219 103.890625 121.214844 104.25 121.5625 L 107.347656 124.589844 L 106.617188 128.859375 C 106.550781 129.242188 106.65625 129.632812 106.90625 129.925781 C 107.15625 130.222656 107.519531 130.394531 107.90625 130.394531 C 108.117188 130.394531 108.328125 130.34375 108.515625 130.242188 L 112.347656 128.226562 L 116.175781 130.242188 C 116.363281 130.34375 116.574219 130.394531 116.785156 130.394531 C 117.171875 130.394531 117.539062 130.222656 117.789062 129.925781 C 118.035156 129.632812 118.140625 129.242188 118.078125 128.859375 L 117.34375 124.589844 L 120.441406 121.5625 C 120.800781 121.210938 120.929688 120.699219 120.773438 120.21875 C 120.617188 119.742188 120.214844 119.402344 119.714844 119.328125 L 115.433594 118.707031 L 113.519531 114.820312 C 113.308594 114.394531 112.882812 114.113281 112.40625 114.089844 C 112.390625 114.089844 112.363281 114.089844 112.34375 114.089844 Z M 112.347656 114.089844 " fill-opacity="1" fill-rule="nonzero"/><path fill="#fbb040" d="M 119.664062 120.769531 C 119.785156 120.65625 119.71875 120.453125 119.554688 120.429688 L 114.796875 119.738281 C 114.734375 119.730469 114.675781 119.6875 114.648438 119.628906 L 112.519531 115.3125 C 112.484375 115.242188 112.417969 115.207031 112.351562 115.203125 C 112.277344 115.199219 112.203125 115.234375 112.164062 115.3125 L 110.035156 119.628906 C 110.007812 119.6875 109.953125 119.726562 109.886719 119.738281 L 105.128906 120.429688 C 104.964844 120.453125 104.902344 120.65625 105.019531 120.769531 L 108.460938 124.128906 C 108.507812 124.175781 108.527344 124.238281 108.519531 124.304688 L 107.703125 129.046875 C 107.675781 129.210938 107.847656 129.335938 107.992188 129.257812 L 112.25 127.019531 C 112.28125 127.003906 112.316406 126.996094 112.351562 126.996094 C 112.378906 127 112.40625 127.003906 112.433594 127.019531 L 116.6875 129.257812 C 116.832031 129.335938 117.003906 129.210938 116.976562 129.046875 L 116.164062 124.304688 C 116.152344 124.238281 116.175781 124.175781 116.21875 124.128906 Z M 119.664062 120.769531 " fill-opacity="1" fill-rule="nonzero"/><path fill="#000000" d="M 132.054688 116.589844 C 132.054688 116.589844 132.0625 116.589844 132.066406 116.589844 C 132.132812 116.589844 132.199219 116.628906 132.234375 116.699219 L 134.363281 121.015625 C 134.390625 121.074219 134.445312 121.113281 134.511719 121.125 L 139.269531 121.816406 C 139.433594 121.839844 139.496094 122.042969 139.378906 122.15625 L 135.9375 125.515625 C 135.890625 125.5625 135.871094 125.625 135.878906 125.691406 L 136.695312 130.433594 C 136.714844 130.566406 136.613281 130.667969 136.5 130.667969 C 136.46875 130.667969 136.4375 130.660156 136.40625 130.644531 L 132.152344 128.40625 C 132.125 128.390625 132.097656 128.386719 132.066406 128.382812 C 132.066406 128.382812 132.0625 128.382812 132.058594 128.382812 C 132.027344 128.382812 131.992188 128.390625 131.964844 128.40625 L 127.710938 130.644531 C 127.679688 130.660156 127.648438 130.667969 127.621094 130.667969 C 127.503906 130.667969 127.402344 130.566406 127.421875 130.433594 L 128.238281 125.691406 C 128.246094 125.625 128.226562 125.5625 128.179688 125.515625 L 124.738281 122.15625 C 124.621094 122.042969 124.683594 121.839844 124.847656 121.816406 L 129.605469 121.125 C 129.667969 121.117188 129.726562 121.074219 129.753906 121.015625 L 131.882812 116.699219 C 131.917969 116.625 131.988281 116.589844 132.058594 116.589844 M 132.058594 115.476562 C 131.558594 115.476562 131.109375 115.753906 130.886719 116.207031 L 128.972656 120.089844 L 124.6875 120.714844 C 124.191406 120.785156 123.785156 121.128906 123.632812 121.605469 C 123.476562 122.085938 123.601562 122.597656 123.960938 122.949219 L 127.0625 125.976562 L 126.328125 130.246094 C 126.265625 130.628906 126.371094 131.015625 126.617188 131.3125 C 126.867188 131.609375 127.234375 131.777344 127.621094 131.777344 C 127.832031 131.777344 128.042969 131.726562 128.230469 131.628906 L 132.058594 129.613281 L 135.890625 131.628906 C 136.078125 131.726562 136.289062 131.777344 136.5 131.777344 C 136.886719 131.777344 137.25 131.609375 137.5 131.3125 C 137.75 131.015625 137.855469 130.628906 137.789062 130.246094 L 137.058594 125.972656 L 140.15625 122.949219 C 140.515625 122.597656 140.644531 122.082031 140.488281 121.605469 C 140.332031 121.125 139.925781 120.785156 139.429688 120.710938 L 135.148438 120.089844 L 133.230469 116.203125 C 133.023438 115.777344 132.59375 115.496094 132.121094 115.476562 C 132.101562 115.476562 132.074219 115.472656 132.058594 115.472656 Z M 132.058594 115.476562 " fill-opacity="1" fill-rule="nonzero"/><path fill="#fbb040" d="M 139.378906 122.15625 C 139.496094 122.039062 139.433594 121.839844 139.269531 121.816406 L 134.511719 121.125 C 134.445312 121.117188 134.390625 121.074219 134.363281 121.015625 L 132.234375 116.699219 C 132.199219 116.628906 132.132812 116.589844 132.066406 116.589844 C 131.992188 116.585938 131.914062 116.621094 131.878906 116.699219 L 129.75 121.015625 C 129.71875 121.074219 129.664062 121.113281 129.597656 121.125 L 124.839844 121.816406 C 124.679688 121.839844 124.613281 122.042969 124.730469 122.15625 L 128.175781 125.515625 C 128.222656 125.5625 128.242188 125.625 128.230469 125.691406 L 127.417969 130.433594 C 127.390625 130.597656 127.558594 130.722656 127.707031 130.644531 L 131.960938 128.40625 C 131.992188 128.390625 132.027344 128.382812 132.0625 128.382812 C 132.09375 128.382812 132.121094 128.390625 132.148438 128.40625 L 136.402344 130.644531 C 136.546875 130.722656 136.71875 130.597656 136.691406 130.433594 L 135.878906 125.691406 C 135.867188 125.625 135.886719 125.5625 135.933594 125.515625 L 139.375 122.15625 Z M 139.378906 122.15625 " fill-opacity="1" fill-rule="nonzero"/><path fill="#000000" d="M 151.769531 119.363281 C 151.769531 119.363281 151.777344 119.363281 151.78125 119.363281 C 151.847656 119.367188 151.914062 119.402344 151.949219 119.472656 L 154.074219 123.789062 C 154.105469 123.847656 154.160156 123.886719 154.226562 123.898438 L 158.984375 124.589844 C 159.148438 124.613281 159.210938 124.816406 159.09375 124.929688 L 155.652344 128.289062 C 155.605469 128.335938 155.582031 128.398438 155.59375 128.464844 L 156.40625 133.210938 C 156.429688 133.339844 156.328125 133.441406 156.210938 133.441406 C 156.179688 133.441406 156.148438 133.433594 156.121094 133.417969 L 151.863281 131.179688 C 151.839844 131.167969 151.808594 131.160156 151.78125 131.15625 C 151.777344 131.15625 151.773438 131.15625 151.769531 131.15625 C 151.738281 131.15625 151.707031 131.164062 151.679688 131.179688 L 147.425781 133.417969 C 147.394531 133.433594 147.363281 133.441406 147.332031 133.441406 C 147.21875 133.441406 147.113281 133.339844 147.136719 133.210938 L 147.949219 128.464844 C 147.960938 128.398438 147.941406 128.335938 147.894531 128.289062 L 144.449219 124.929688 C 144.332031 124.816406 144.398438 124.613281 144.5625 124.589844 L 149.316406 123.898438 C 149.382812 123.890625 149.4375 123.847656 149.46875 123.789062 L 151.59375 119.472656 C 151.632812 119.398438 151.703125 119.363281 151.773438 119.363281 M 151.773438 118.25 C 151.269531 118.25 150.820312 118.527344 150.597656 118.980469 L 148.683594 122.863281 L 144.402344 123.488281 C 143.90625 123.558594 143.5 123.902344 143.34375 124.378906 C 143.1875 124.859375 143.316406 125.375 143.675781 125.722656 L 146.773438 128.75 L 146.042969 133.019531 C 145.976562 133.402344 146.082031 133.789062 146.332031 134.085938 C 146.582031 134.382812 146.945312 134.554688 147.332031 134.554688 C 147.542969 134.554688 147.753906 134.5 147.941406 134.402344 L 151.773438 132.386719 L 155.601562 134.402344 C 155.789062 134.5 156 134.554688 156.210938 134.554688 C 156.597656 134.554688 156.964844 134.382812 157.214844 134.085938 C 157.460938 133.789062 157.566406 133.402344 157.503906 133.019531 L 156.769531 128.75 L 159.867188 125.722656 C 160.226562 125.371094 160.355469 124.855469 160.199219 124.378906 C 160.042969 123.902344 159.640625 123.558594 159.140625 123.488281 L 154.859375 122.863281 L 152.945312 118.976562 C 152.734375 118.550781 152.308594 118.273438 151.832031 118.25 C 151.816406 118.25 151.789062 118.25 151.769531 118.25 Z M 151.773438 118.25 " fill-opacity="1" fill-rule="nonzero"/><path fill="#fbb040" d="M 159.09375 124.929688 C 159.210938 124.8125 159.144531 124.613281 158.984375 124.589844 L 154.226562 123.898438 C 154.160156 123.890625 154.105469 123.847656 154.074219 123.789062 L 151.945312 119.472656 C 151.914062 119.402344 151.847656 119.367188 151.777344 119.363281 C 151.703125 119.359375 151.628906 119.394531 151.589844 119.472656 L 149.460938 123.789062 C 149.433594 123.847656 149.378906 123.886719 149.3125 123.898438 L 144.554688 124.589844 C 144.390625 124.613281 144.328125 124.816406 144.445312 124.929688 L 147.886719 128.289062 C 147.933594 128.335938 147.957031 128.398438 147.945312 128.464844 L 147.132812 133.210938 C 147.105469 133.371094 147.273438 133.496094 147.421875 133.417969 L 151.675781 131.179688 C 151.707031 131.164062 151.742188 131.15625 151.777344 131.15625 C 151.804688 131.160156 151.832031 131.164062 151.859375 131.179688 L 156.113281 133.417969 C 156.261719 133.496094 156.429688 133.371094 156.402344 133.210938 L 155.589844 128.464844 C 155.578125 128.398438 155.601562 128.335938 155.648438 128.289062 L 159.089844 124.929688 Z M 159.09375 124.929688 " fill-opacity="1" fill-rule="nonzero"/><path fill="#000000" d="M 101.074219 100.613281 C 100.488281 100.613281 99.863281 100.519531 99.195312 100.335938 C 98.53125 100.15625 97.980469 99.890625 97.554688 99.539062 C 97.347656 99.363281 97.183594 99.136719 97.066406 98.859375 C 96.945312 98.582031 96.886719 98.316406 96.886719 98.058594 C 96.886719 97.789062 97.003906 97.535156 97.230469 97.296875 C 97.460938 97.058594 97.789062 96.941406 98.21875 96.941406 C 98.503906 96.941406 98.863281 97.089844 99.289062 97.394531 C 99.542969 97.550781 99.820312 97.695312 100.121094 97.824219 C 100.425781 97.949219 100.734375 98.011719 101.050781 98.011719 C 101.8125 98.011719 102.46875 97.875 103.027344 97.59375 C 103.582031 97.316406 104.011719 96.933594 104.3125 96.4375 C 104.613281 95.949219 104.761719 95.367188 104.761719 94.699219 C 104.761719 94.097656 104.625 93.578125 104.347656 93.152344 C 104.070312 92.722656 103.703125 92.386719 103.25 92.148438 C 102.800781 91.910156 102.3125 91.792969 101.789062 91.792969 C 101.296875 91.792969 100.867188 91.871094 100.503906 92.03125 C 100.136719 92.1875 99.804688 92.351562 99.503906 92.519531 C 99.203125 92.683594 98.898438 92.769531 98.597656 92.769531 C 98.074219 92.769531 97.6875 92.652344 97.433594 92.421875 C 97.179688 92.191406 97.019531 91.917969 96.957031 91.601562 C 96.894531 91.28125 96.878906 90.996094 96.910156 90.742188 L 97.648438 84.949219 C 97.710938 84.617188 97.875 84.34375 98.136719 84.128906 C 98.394531 83.914062 98.710938 83.808594 99.074219 83.808594 L 105.953125 83.808594 C 106.332031 83.808594 106.648438 83.933594 106.902344 84.1875 C 107.15625 84.445312 107.285156 84.761719 107.285156 85.140625 C 107.285156 85.507812 107.15625 85.8125 106.902344 86.058594 C 106.648438 86.304688 106.332031 86.429688 105.953125 86.429688 L 99.8125 86.429688 L 100.074219 86.214844 L 99.429688 91.054688 L 99.121094 90.148438 C 99.21875 89.988281 99.421875 89.835938 99.738281 89.695312 C 100.058594 89.550781 100.421875 89.429688 100.835938 89.324219 C 101.246094 89.222656 101.652344 89.171875 102.046875 89.171875 C 103.113281 89.171875 104.0625 89.414062 104.90625 89.898438 C 105.746094 90.382812 106.410156 91.042969 106.894531 91.875 C 107.378906 92.710938 107.617188 93.652344 107.617188 94.699219 C 107.617188 95.890625 107.347656 96.933594 106.808594 97.824219 C 106.269531 98.710938 105.511719 99.398438 104.535156 99.882812 C 103.558594 100.371094 102.40625 100.613281 101.074219 100.613281 Z M 101.074219 100.613281 " fill-opacity="1" fill-rule="nonzero"/><path fill="#000000" d="M 111.144531 100.347656 C 110.683594 100.347656 110.332031 100.226562 110.082031 99.980469 C 109.835938 99.734375 109.714844 99.378906 109.714844 98.917969 L 109.714844 98.515625 C 109.714844 98.050781 109.835938 97.699219 110.082031 97.453125 C 110.328125 97.207031 110.683594 97.082031 111.144531 97.082031 L 111.453125 97.082031 C 111.914062 97.082031 112.265625 97.207031 112.511719 97.453125 C 112.757812 97.699219 112.882812 98.050781 112.882812 98.515625 L 112.882812 98.917969 C 112.882812 99.378906 112.757812 99.734375 112.511719 99.980469 C 112.265625 100.226562 111.914062 100.347656 111.453125 100.347656 Z M 111.144531 100.347656 " fill-opacity="1" fill-rule="nonzero"/><path fill="#000000" d="M 121.804688 100.613281 C 120.441406 100.613281 119.285156 100.25 118.339844 99.527344 C 117.398438 98.804688 116.679688 97.796875 116.1875 96.5 C 115.695312 95.207031 115.449219 93.714844 115.449219 92.03125 C 115.449219 90.332031 115.695312 88.835938 116.1875 87.550781 C 116.679688 86.265625 117.398438 85.257812 118.339844 84.535156 C 119.285156 83.8125 120.441406 83.453125 121.804688 83.453125 C 123.167969 83.453125 124.324219 83.8125 125.265625 84.535156 C 126.210938 85.257812 126.929688 86.265625 127.421875 87.550781 C 127.910156 88.835938 128.160156 90.332031 128.160156 92.03125 C 128.160156 93.714844 127.914062 95.207031 127.421875 96.5 C 126.929688 97.796875 126.210938 98.804688 125.265625 99.527344 C 124.324219 100.25 123.167969 100.613281 121.804688 100.613281 Z M 121.804688 97.75 C 122.472656 97.75 123.046875 97.542969 123.53125 97.121094 C 124.015625 96.699219 124.390625 96.0625 124.660156 95.214844 C 124.929688 94.363281 125.066406 93.304688 125.066406 92.03125 C 125.066406 90.746094 124.929688 89.679688 124.660156 88.835938 C 124.390625 87.996094 124.015625 87.363281 123.53125 86.941406 C 123.046875 86.523438 122.472656 86.3125 121.804688 86.3125 C 121.152344 86.3125 120.582031 86.519531 120.089844 86.941406 C 119.597656 87.363281 119.21875 87.996094 118.949219 88.835938 C 118.679688 89.679688 118.542969 90.742188 118.542969 92.03125 C 118.542969 93.304688 118.679688 94.363281 118.949219 95.214844 C 119.21875 96.0625 119.597656 96.699219 120.089844 97.121094 C 120.582031 97.542969 121.152344 97.75 121.804688 97.75 Z M 121.804688 97.75 " fill-opacity="1" fill-rule="nonzero"/></svg>